<svg width="60" height="60" viewBox="0 0 60 60" fill="none" xmlns="http://www.w3.org/2000/svg">
<path d="M30 7.5C42.375 7.5 52.5 17.625 52.5 30C52.5 42.375 42.375 52.5 30 52.5C17.625 52.5 7.5 42.375 7.5 30C7.5 17.625 17.625 7.5 30 7.5ZM30 3.75C15.5625 3.75 3.75 15.5625 3.75 30C3.75 44.4375 15.5625 56.25 30 56.25C44.4375 56.25 56.25 44.4375 56.25 30C56.25 15.5625 44.4375 3.75 30 3.75Z" fill="white"/>
<path d="M45 28.125H31.875V15H28.125V28.125H15V31.875H28.125V45H31.875V31.875H45V28.125Z" fill="white"/>
</svg>
