<svg width="60" height="60" viewBox="0 0 60 60" fill="none" xmlns="http://www.w3.org/2000/svg">
<path d="M22.5 30.6675V54.375C22.5 54.6947 22.5818 55.0092 22.7376 55.2884C22.8934 55.5676 23.1179 55.8024 23.39 55.9703C23.6621 56.1383 23.9726 56.2339 24.292 56.2481C24.6114 56.2622 24.9292 56.1945 25.215 56.0512L36.465 50.4262C36.7761 50.2704 37.0376 50.031 37.2204 49.735C37.4032 49.439 37.5 49.0979 37.5 48.75V30.6675L53.9513 10.5637C54.1074 10.3732 54.2244 10.1537 54.2957 9.91788C54.367 9.68207 54.3912 9.43452 54.3668 9.18938C54.3424 8.94423 54.27 8.70628 54.1537 8.48913C54.0373 8.27197 53.8794 8.07985 53.6888 7.92374C53.4982 7.76763 53.2787 7.65059 53.0429 7.5793C52.8071 7.508 52.5596 7.48385 52.3144 7.50823C52.0693 7.5326 51.8313 7.60503 51.6142 7.72136C51.397 7.83769 51.2049 7.99566 51.0488 8.18624L34.1738 28.8112C33.8994 29.1466 33.7497 29.5667 33.75 30V47.5912L26.25 51.3412V30C26.2504 29.5667 26.1006 29.1466 25.8263 28.8112L11.4563 11.25H41.25C41.7473 11.25 42.2242 11.0524 42.5759 10.7008C42.9275 10.3492 43.125 9.87227 43.125 9.37499C43.125 8.87771 42.9275 8.4008 42.5759 8.04917C42.2242 7.69754 41.7473 7.49999 41.25 7.49999H7.50003C7.14483 7.49975 6.79687 7.60042 6.49665 7.79026C6.19644 7.98011 5.95633 8.25132 5.80427 8.57233C5.65222 8.89334 5.59447 9.25094 5.63776 9.60349C5.68104 9.95605 5.82358 10.2891 6.04878 10.5637L22.5 30.6675Z" fill="white"/>
</svg>
